<svg width="417" height="590" viewBox="0 0 417 590" fill="none" xmlns="http://www.w3.org/2000/svg">
<g opacity="0.7">
<path d="M159.168 61.3065C145.083 65.1146 125.258 77.906 103.345 31.389C81.4322 -15.128 24.7878 -7.90094 -0.795215 1.52722L-85 295.184L-24.4923 312.535C-24.087 310.217 -23.4128 307.955 -22.7237 305.551C-18.7544 291.709 45.7588 291.223 98.9207 271.415C160.59 248.437 167.218 234.626 127.387 210.559C97.0522 192.231 -11.4629 195.356 114.711 139.512C215.65 94.8371 181.646 53.8414 159.168 61.3065Z" fill="#5E7974"/>
<path d="M415.818 604.653C209.636 599.922 206.171 558.691 209.636 516.109C213.102 473.526 308.396 411.622 415.818 427.564C523.241 443.506 622 467.207 622 516.109C622 565.01 622 609.384 415.818 604.653Z" fill="#BCC2B4"/>
<path d="M400.795 315.298C293.243 173.928 431.123 272.791 305.435 132.171C179.746 -8.44892 367.341 -45.4641 413.337 -43.8579C459.333 -42.2517 493.812 39.4501 490.349 138.628C486.885 237.806 508.347 456.667 400.795 315.298Z" fill="#DAA289"/>
</g>
</svg>
