<svg width="417" height="590" viewBox="0 0 417 590" fill="none" xmlns="http://www.w3.org/2000/svg">
<g opacity="0.7">
<path d="M0.818152 604.653C-205.364 599.922 -208.829 558.691 -205.364 516.109C-201.898 473.526 -106.604 411.622 0.818152 427.564C108.241 443.506 207 467.207 207 516.109C207 565.01 207 609.384 0.818152 604.653Z" fill="#BCC2B4"/>
<path d="M-22.2051 308.298C-129.757 166.928 8.12325 265.791 -117.565 125.171C-243.254 -15.4489 -55.6589 -52.4641 -9.66308 -50.8579C36.3328 -49.2517 70.8122 32.4501 67.3488 131.628C63.8855 230.806 85.3469 449.667 -22.2051 308.298Z" fill="#DAA289"/>
<path d="M378.438 354.614C387.559 339.356 394.108 311.367 452.681 333.589C511.253 355.811 554.78 301.538 569.221 271.623L394.489 -57L326.776 -20.9966C328.383 -18.6226 329.706 -16.0692 331.136 -13.3798C339.373 2.11086 283.245 57.1358 253.419 119.488C218.819 191.818 224.698 209.53 279.975 196.912C322.072 187.303 414.529 92.725 351.213 248.45C300.56 373.03 365.056 380.18 378.438 354.614Z" fill="#5E7974"/>
</g>
</svg>
